<svg width="512" height="512" xmlns="http://www.w3.org/2000/svg">
 <defs>
  <!-- Cyan to Magenta gradient -->
  <linearGradient y2="0%" x2="100%" y1="100%" x1="0%" id="logoGrad">
   <stop stop-color="#3963f9" offset="0%"/>
   <stop stop-color="#7b52f7" offset="35%"/>
   <stop stop-color="#ce6be1" offset="70%"/>
   <stop stop-color="#e22cf0" offset="100%"/>
  </linearGradient>
 </defs>
 <!-- Solid White Background -->
 <!-- Main K2 Monogram Body -->
 <!-- Cutout Holes -->
 <g>
  <title>Layer 1</title>
  <rect id="svg_1" fill="#ffffff" height="512" width="512"/>
  <path id="svg_2" fill="url(#logoGrad)" d="m253,43l6,5l73,104l0,2l-145.89551,180.19402l89.89551,120.80598l12,19l-77,0l-72,-93l-32,35l0,58l-63,1l-3,-2l0,-224l104,-135l30,37l78,-107l0,-1z"/>
  <path id="svg_3" fill="url(#logoGrad)" d="m378,127l86,124l7,20l2,22l-6,28l-8,14l-10,12l-18,16l-71,50l111,1l1,60l-159,0l-47,-64l2,-4l116,-82l13,-10l6,-9l1,-15l-3,-7l-10,-8l-11,-3l-23,0l-14,4l-9,6l-11,12l-4,8l-4,0l-53,-28l5,-8l110,-138l1,-1z"/>
  <path id="svg_4" fill="#ffffff" d="m108,196l37,-48l-1.70131,45.98487l18.66776,-24.30945l1.95514,28.17669l90.16794,-120.43417l0.5372,54l19.19384,-25.29814l9.4329,13l-177.49216,220.13385l2.2387,-143.25365z"/>
  <path id="svg_5" fill="#ffffff" d="m331,220l45,-58l4,32l2,1l10,-11l26,37l-14,-5l-23,-3l-30,1l-19,5l-1,1z"/>
 </g>
</svg>